<svg xmlns="http://www.w3.org/2000/svg" xmlns:xlink="http://www.w3.org/1999/xlink" width="500" zoomAndPan="magnify" viewBox="0 0 375 374.999991" height="500" preserveAspectRatio="xMidYMid meet" version="1.0"><defs><clipPath id="b498e4403a"><path d="M 26.6875 67 L 348.4375 67 L 348.4375 310.960938 L 26.6875 310.960938 Z M 26.6875 67 " clip-rule="nonzero"/></clipPath><clipPath id="9c301a7a87"><path d="M 213.917969 167 L 242 167 L 242 208 L 213.917969 208 Z M 213.917969 167 " clip-rule="nonzero"/></clipPath><clipPath id="53a335e09d"><path d="M 265 167 L 293.417969 167 L 293.417969 208 L 265 208 Z M 265 167 " clip-rule="nonzero"/></clipPath><clipPath id="4128803b67"><path d="M 239 156.644531 L 268 156.644531 L 268 218.144531 L 239 218.144531 Z M 239 156.644531 " clip-rule="nonzero"/></clipPath></defs><g clip-path="url(#b498e4403a)"><path fill="#ffffff" d="M 336.621094 299.101562 L 202.691406 299.101562 C 207.597656 296.550781 214.085938 293.640625 222.191406 290.953125 C 241.289062 284.628906 273.472656 278.3125 318.355469 284.148438 C 320.015625 284.363281 321.695312 283.851562 322.957031 282.742188 C 324.222656 281.632812 324.945312 280.035156 324.945312 278.355469 L 324.945312 114.992188 L 336.621094 114.992188 Z M 38.382812 114.992188 L 50.058594 114.992188 L 50.058594 278.355469 C 50.058594 280.035156 50.78125 281.632812 52.042969 282.742188 C 53.308594 283.851562 54.984375 284.363281 56.648438 284.148438 C 101.53125 278.3125 133.71875 284.628906 152.8125 290.953125 C 160.917969 293.640625 167.40625 296.550781 172.3125 299.101562 L 38.382812 299.101562 Z M 61.734375 80.644531 C 94.921875 76.703125 125.695312 82.808594 146.058594 88.804688 C 163.332031 93.894531 176.128906 99.738281 181.664062 102.457031 L 181.664062 290.890625 C 176.042969 287.683594 167.929688 283.722656 157.234375 280.121094 C 142.457031 275.148438 120.375 270.164062 91.21875 270.164062 C 82.082031 270.164062 72.25 270.652344 61.734375 271.785156 Z M 313.269531 80.644531 L 313.269531 271.785156 C 269.191406 267.039062 237.175781 273.589844 217.769531 280.121094 C 207.074219 283.722656 198.960938 287.683594 193.339844 290.890625 L 193.339844 102.460938 C 205.972656 96.265625 256.441406 73.878906 313.269531 80.644531 Z M 342.457031 103.316406 L 324.945312 103.316406 L 324.945312 75.535156 C 324.945312 72.640625 322.824219 70.1875 319.964844 69.761719 C 282.652344 64.214844 247.910156 71.015625 225.328125 77.699219 C 206.574219 83.253906 193.074219 89.527344 187.5 92.3125 C 181.929688 89.527344 168.429688 83.253906 149.675781 77.699219 C 108.765625 65.59375 75.632812 66.699219 55.039062 69.761719 C 52.175781 70.1875 50.058594 72.640625 50.058594 75.535156 L 50.058594 103.316406 L 32.546875 103.316406 C 29.320312 103.316406 26.707031 105.929688 26.707031 109.152344 L 26.707031 304.941406 C 26.707031 308.164062 29.320312 310.78125 32.546875 310.78125 L 342.457031 310.78125 C 345.679688 310.78125 348.296875 308.164062 348.296875 304.941406 L 348.296875 109.152344 C 348.296875 105.929688 345.679688 103.316406 342.457031 103.316406 " fill-opacity="1" fill-rule="nonzero"/></g><path fill="#ffffff" d="M 238.988281 206.957031 C 238.550781 206.957031 238.117188 206.8125 237.773438 206.535156 L 215.542969 189.046875 C 215.0625 188.671875 214.789062 188.105469 214.789062 187.5 C 214.789062 186.894531 215.0625 186.328125 215.539062 185.949219 L 237.773438 168.464844 C 238.117188 168.1875 238.550781 168.039062 238.988281 168.039062 C 239.597656 168.039062 240.164062 168.3125 240.535156 168.792969 C 240.859375 169.203125 241.007812 169.722656 240.945312 170.242188 C 240.882812 170.765625 240.621094 171.230469 240.207031 171.554688 L 219.945312 187.5 L 240.207031 203.441406 C 240.621094 203.769531 240.882812 204.234375 240.945312 204.753906 C 241.007812 205.277344 240.859375 205.792969 240.535156 206.207031 C 240.164062 206.683594 239.597656 206.957031 238.988281 206.957031 " fill-opacity="1" fill-rule="nonzero"/><g clip-path="url(#9c301a7a87)"><path fill="#ffffff" d="M 238.988281 167.203125 C 238.363281 167.203125 237.75 167.414062 237.253906 167.800781 L 215.023438 185.292969 C 214.339844 185.832031 213.949219 186.632812 213.949219 187.5 C 213.949219 188.363281 214.34375 189.171875 215.023438 189.707031 L 237.253906 207.195312 C 237.746094 207.582031 238.363281 207.796875 238.988281 207.796875 C 239.859375 207.796875 240.664062 207.40625 241.195312 206.722656 C 241.664062 206.136719 241.867188 205.402344 241.78125 204.65625 C 241.6875 203.914062 241.316406 203.246094 240.726562 202.785156 L 221.300781 187.5 L 240.726562 172.214844 C 241.316406 171.75 241.6875 171.085938 241.78125 170.339844 C 241.867188 169.597656 241.664062 168.863281 241.195312 168.273438 C 240.664062 167.589844 239.855469 167.203125 238.988281 167.203125 Z M 238.988281 168.878906 C 239.324219 168.878906 239.65625 169.027344 239.878906 169.308594 C 240.265625 169.800781 240.179688 170.511719 239.691406 170.898438 L 218.585938 187.5 L 239.691406 204.101562 C 240.179688 204.488281 240.265625 205.199219 239.878906 205.6875 C 239.65625 205.972656 239.324219 206.121094 238.988281 206.121094 C 238.746094 206.121094 238.5 206.042969 238.292969 205.878906 L 216.058594 188.386719 C 215.789062 188.175781 215.628906 187.84375 215.628906 187.5 C 215.628906 187.152344 215.789062 186.824219 216.058594 186.609375 L 238.292969 169.121094 C 238.496094 168.957031 238.746094 168.878906 238.988281 168.878906 " fill-opacity="1" fill-rule="nonzero"/></g><path fill="#ffffff" d="M 268.320312 206.957031 C 267.714844 206.957031 267.152344 206.683594 266.773438 206.207031 C 266.101562 205.355469 266.25 204.113281 267.105469 203.441406 L 287.367188 187.5 L 267.105469 171.554688 C 266.25 170.886719 266.101562 169.644531 266.773438 168.792969 C 267.152344 168.3125 267.714844 168.039062 268.320312 168.039062 C 268.761719 168.039062 269.195312 168.1875 269.539062 168.464844 L 291.773438 185.949219 C 292.25 186.328125 292.519531 186.894531 292.519531 187.5 C 292.519531 188.105469 292.25 188.671875 291.769531 189.046875 L 269.539062 206.535156 C 269.195312 206.8125 268.761719 206.957031 268.320312 206.957031 " fill-opacity="1" fill-rule="nonzero"/><g clip-path="url(#53a335e09d)"><path fill="#ffffff" d="M 268.320312 167.203125 C 267.457031 167.203125 266.652344 167.589844 266.117188 168.273438 C 265.15625 169.488281 265.367188 171.257812 266.585938 172.214844 L 286.011719 187.5 L 266.585938 202.785156 C 265.367188 203.738281 265.15625 205.511719 266.117188 206.722656 C 266.652344 207.40625 267.457031 207.796875 268.320312 207.796875 C 268.949219 207.796875 269.5625 207.582031 270.054688 207.195312 L 292.289062 189.707031 C 292.96875 189.171875 293.359375 188.363281 293.359375 187.5 C 293.359375 186.632812 292.96875 185.832031 292.292969 185.292969 L 270.058594 167.800781 C 269.566406 167.414062 268.949219 167.203125 268.320312 167.203125 Z M 268.320312 168.878906 C 268.566406 168.878906 268.816406 168.957031 269.019531 169.121094 L 291.253906 186.609375 C 291.523438 186.824219 291.683594 187.152344 291.683594 187.5 C 291.683594 187.84375 291.523438 188.175781 291.253906 188.386719 L 269.019531 205.878906 C 268.816406 206.042969 268.566406 206.121094 268.320312 206.121094 C 267.988281 206.121094 267.65625 205.972656 267.433594 205.6875 C 267.046875 205.199219 267.132812 204.488281 267.621094 204.101562 L 288.722656 187.5 L 267.621094 170.898438 C 267.132812 170.511719 267.046875 169.800781 267.433594 169.308594 C 267.65625 169.027344 267.988281 168.878906 268.320312 168.878906 " fill-opacity="1" fill-rule="nonzero"/></g><path fill="#ffffff" d="M 242.609375 217.511719 C 242.363281 217.511719 242.125 217.464844 241.898438 217.378906 C 241.40625 217.1875 241.019531 216.820312 240.808594 216.339844 C 240.59375 215.855469 240.582031 215.324219 240.769531 214.832031 L 262.484375 158.742188 C 262.773438 157.992188 263.511719 157.484375 264.316406 157.484375 C 264.5625 157.484375 264.804688 157.53125 265.03125 157.621094 C 266.042969 158.011719 266.546875 159.15625 266.15625 160.167969 L 244.445312 216.253906 C 244.15625 217.007812 243.414062 217.511719 242.609375 217.511719 " fill-opacity="1" fill-rule="nonzero"/><g clip-path="url(#4128803b67)"><path fill="#ffffff" d="M 264.316406 156.648438 C 263.167969 156.648438 262.113281 157.371094 261.703125 158.441406 L 239.988281 214.527344 C 239.71875 215.230469 239.738281 215.992188 240.039062 216.679688 C 240.34375 217.363281 240.894531 217.890625 241.59375 218.160156 C 241.921875 218.289062 242.257812 218.351562 242.609375 218.351562 C 243.757812 218.351562 244.8125 217.632812 245.226562 216.558594 L 266.9375 160.472656 C 267.496094 159.027344 266.777344 157.394531 265.332031 156.839844 C 265.007812 156.710938 264.667969 156.648438 264.316406 156.648438 Z M 264.316406 158.324219 C 264.457031 158.324219 264.59375 158.351562 264.726562 158.402344 C 265.308594 158.625 265.597656 159.28125 265.375 159.863281 L 243.660156 215.949219 C 243.492188 216.398438 243.0625 216.675781 242.609375 216.675781 C 242.46875 216.675781 242.332031 216.652344 242.199219 216.597656 C 241.617188 216.375 241.328125 215.714844 241.554688 215.136719 L 263.265625 159.050781 C 263.4375 158.601562 263.863281 158.324219 264.316406 158.324219 " fill-opacity="1" fill-rule="nonzero"/></g></svg>