<svg xmlns="http://www.w3.org/2000/svg" xmlns:xlink="http://www.w3.org/1999/xlink" width="1920" zoomAndPan="magnify" viewBox="0 0 1440 959.999988" height="1280" preserveAspectRatio="xMidYMid meet" version="1.0"><defs><clipPath id="b2e3db2d9a"><path d="M 120.066406 33 L 1320 33 L 1320 939.011719 L 120.066406 939.011719 Z M 120.066406 33 " clip-rule="nonzero"/></clipPath><clipPath id="6575d971fb"><path d="M 1022 339 L 1137.199219 339 L 1137.199219 507 L 1022 507 Z M 1022 339 " clip-rule="nonzero"/></clipPath><clipPath id="a144c88c72"><path d="M 917 296.378906 L 1030 296.378906 L 1030 549.546875 L 917 549.546875 Z M 917 296.378906 " clip-rule="nonzero"/></clipPath></defs><g clip-path="url(#b2e3db2d9a)"><path fill="#2b82be" d="M 1275.996094 896.109375 L 776.636719 896.109375 C 794.933594 886.585938 819.125 875.734375 849.339844 865.726562 C 920.546875 842.136719 1040.558594 818.589844 1207.894531 840.339844 C 1214.09375 841.152344 1220.355469 839.242188 1225.0625 835.105469 C 1229.765625 830.972656 1232.46875 825.015625 1232.46875 818.753906 L 1232.46875 209.632812 L 1275.996094 209.632812 Z M 164.007812 209.632812 L 207.539062 209.632812 L 207.539062 818.753906 C 207.539062 825.015625 210.238281 830.972656 214.941406 835.105469 C 219.652344 839.242188 225.898438 841.152344 232.113281 840.339844 C 399.457031 818.582031 519.464844 842.136719 590.667969 865.726562 C 620.878906 875.734375 645.074219 886.585938 663.371094 896.109375 L 164.007812 896.109375 Z M 251.074219 81.570312 C 374.820312 66.871094 489.546875 89.636719 565.476562 112 C 629.890625 130.980469 677.601562 152.757812 698.234375 162.902344 L 698.234375 865.484375 C 677.285156 853.53125 647.019531 838.753906 607.148438 825.332031 C 552.054688 806.785156 469.71875 788.199219 361 788.199219 C 326.941406 788.199219 290.277344 790.027344 251.074219 794.246094 Z M 1188.933594 81.566406 L 1188.933594 794.246094 C 1024.585938 776.546875 905.210938 800.976562 832.851562 825.332031 C 792.984375 838.753906 762.722656 853.53125 741.769531 865.484375 L 741.769531 162.914062 C 788.875 139.820312 977.042969 56.347656 1188.933594 81.566406 Z M 1297.765625 166.105469 L 1232.46875 166.105469 L 1232.46875 62.523438 C 1232.46875 51.730469 1224.566406 42.578125 1213.902344 40.992188 C 1074.777344 20.308594 945.234375 45.675781 861.046875 70.59375 C 791.121094 91.292969 740.777344 114.691406 720.003906 125.074219 C 699.230469 114.691406 648.886719 91.292969 578.960938 70.59375 C 426.433594 25.445312 302.886719 29.574219 226.105469 40.992188 C 215.4375 42.578125 207.539062 51.730469 207.539062 62.523438 L 207.539062 166.097656 L 142.242188 166.097656 C 130.21875 166.097656 120.476562 175.847656 120.476562 187.867188 L 120.476562 917.875 C 120.476562 929.894531 130.21875 939.640625 142.242188 939.640625 L 1297.765625 939.640625 C 1309.785156 939.640625 1319.53125 929.894531 1319.53125 917.875 L 1319.53125 187.871094 C 1319.53125 175.847656 1309.785156 166.105469 1297.765625 166.105469 " fill-opacity="1" fill-rule="nonzero"/></g><path fill="#6db5e7" d="M 913.886719 502.796875 C 912.085938 502.796875 910.308594 502.191406 908.890625 501.0625 L 817.660156 429.308594 C 815.699219 427.765625 814.574219 425.457031 814.574219 422.964844 C 814.574219 420.472656 815.699219 418.164062 817.65625 416.609375 L 908.890625 344.867188 C 910.308594 343.738281 912.085938 343.132812 913.886719 343.132812 C 916.378906 343.132812 918.703125 344.25 920.234375 346.214844 C 921.566406 347.910156 922.171875 350.027344 921.910156 352.160156 C 921.664062 354.308594 920.578125 356.21875 918.882812 357.554688 L 835.738281 422.964844 L 918.882812 488.363281 C 920.578125 489.710938 921.664062 491.621094 921.910156 493.753906 C 922.171875 495.902344 921.566406 498.007812 920.234375 499.714844 C 918.703125 501.667969 916.378906 502.796875 913.886719 502.796875 " fill-opacity="1" fill-rule="nonzero"/><path fill="#224c8d" d="M 913.886719 339.695312 C 911.3125 339.695312 908.796875 340.5625 906.773438 342.15625 L 815.53125 413.910156 C 812.730469 416.125 811.132812 419.414062 811.132812 422.964844 C 811.132812 426.515625 812.742188 429.816406 815.53125 432.019531 L 906.773438 503.773438 C 908.78125 505.355469 911.3125 506.234375 913.886719 506.234375 C 917.453125 506.234375 920.753906 504.625 922.945312 501.832031 C 924.855469 499.425781 925.695312 496.410156 925.339844 493.355469 C 924.96875 490.300781 923.441406 487.5625 921.015625 485.664062 L 841.296875 422.964844 L 921.015625 360.265625 C 923.441406 358.351562 924.96875 355.628906 925.339844 352.574219 C 925.695312 349.519531 924.855469 346.503906 922.945312 344.082031 C 920.753906 341.289062 917.4375 339.695312 913.886719 339.695312 Z M 913.886719 346.574219 C 915.265625 346.574219 916.625 347.179688 917.535156 348.335938 C 919.132812 350.359375 918.773438 353.273438 916.765625 354.855469 L 830.164062 422.964844 L 916.765625 491.074219 C 918.773438 492.65625 919.132812 495.570312 917.535156 497.582031 C 916.625 498.75 915.265625 499.355469 913.886719 499.355469 C 912.882812 499.355469 911.878906 499.039062 911.023438 498.363281 L 819.785156 426.609375 C 818.671875 425.730469 818.015625 424.382812 818.015625 422.964844 C 818.015625 421.535156 818.671875 420.199219 819.785156 419.320312 L 911.023438 347.566406 C 911.863281 346.890625 912.882812 346.574219 913.886719 346.574219 " fill-opacity="1" fill-rule="nonzero"/><path fill="#6db5e7" d="M 1034.265625 502.796875 C 1031.773438 502.796875 1029.460938 501.667969 1027.90625 499.714844 C 1025.152344 496.21875 1025.757812 491.128906 1029.269531 488.363281 L 1112.429688 422.964844 L 1029.269531 357.554688 C 1025.757812 354.800781 1025.152344 349.710938 1027.90625 346.214844 C 1029.460938 344.25 1031.773438 343.132812 1034.265625 343.132812 C 1036.070312 343.132812 1037.84375 343.738281 1039.261719 344.867188 L 1130.5 416.609375 C 1132.457031 418.164062 1133.570312 420.472656 1133.570312 422.964844 C 1133.570312 425.457031 1132.457031 427.765625 1130.488281 429.308594 L 1039.261719 501.0625 C 1037.84375 502.191406 1036.070312 502.796875 1034.265625 502.796875 " fill-opacity="1" fill-rule="nonzero"/><g clip-path="url(#6575d971fb)"><path fill="#224c8d" d="M 1034.265625 339.695312 C 1030.714844 339.695312 1027.410156 341.289062 1025.207031 344.082031 C 1021.273438 349.078125 1022.140625 356.328125 1027.136719 360.265625 L 1106.855469 422.964844 L 1027.136719 485.664062 C 1022.140625 489.585938 1021.273438 496.851562 1025.207031 501.832031 C 1027.410156 504.625 1030.714844 506.234375 1034.265625 506.234375 C 1036.839844 506.234375 1039.359375 505.355469 1041.382812 503.773438 L 1132.621094 432.019531 C 1135.414062 429.816406 1137.011719 426.515625 1137.011719 422.964844 C 1137.011719 419.414062 1135.414062 416.125 1132.636719 413.910156 L 1041.394531 342.15625 C 1039.371094 340.5625 1036.839844 339.695312 1034.265625 339.695312 Z M 1034.265625 346.574219 C 1035.269531 346.574219 1036.289062 346.890625 1037.128906 347.566406 L 1128.367188 419.320312 C 1129.484375 420.199219 1130.128906 421.535156 1130.128906 422.964844 C 1130.128906 424.382812 1129.484375 425.730469 1128.367188 426.609375 L 1037.128906 498.363281 C 1036.289062 499.039062 1035.269531 499.355469 1034.265625 499.355469 C 1032.890625 499.355469 1031.527344 498.75 1030.617188 497.582031 C 1029.035156 495.570312 1029.378906 492.65625 1031.390625 491.074219 L 1117.992188 422.964844 L 1031.390625 354.855469 C 1029.378906 353.273438 1029.035156 350.359375 1030.617188 348.335938 C 1031.527344 347.179688 1032.902344 346.574219 1034.265625 346.574219 " fill-opacity="1" fill-rule="nonzero"/></g><path fill="#6db5e7" d="M 928.738281 546.09375 C 927.734375 546.09375 926.757812 545.902344 925.820312 545.542969 C 923.8125 544.761719 922.214844 543.246094 921.347656 541.28125 C 920.464844 539.296875 920.425781 537.109375 921.195312 535.101562 L 1010.304688 304.992188 C 1011.5 301.910156 1014.527344 299.835938 1017.832031 299.835938 C 1018.835938 299.835938 1019.828125 300.027344 1020.761719 300.382812 C 1024.90625 301.996094 1026.984375 306.6875 1025.375 310.839844 L 936.28125 540.9375 C 935.082031 544.019531 932.042969 546.09375 928.738281 546.09375 " fill-opacity="1" fill-rule="nonzero"/><g clip-path="url(#a144c88c72)"><path fill="#224c8d" d="M 1017.832031 296.394531 C 1013.109375 296.394531 1008.789062 299.367188 1007.097656 303.753906 L 917.988281 533.851562 C 916.886719 536.726562 916.957031 539.847656 918.195312 542.667969 C 919.449219 545.476562 921.707031 547.648438 924.582031 548.75 C 925.917969 549.273438 927.308594 549.535156 928.738281 549.535156 C 933.460938 549.535156 937.78125 546.578125 939.488281 542.175781 L 1028.582031 312.078125 C 1030.878906 306.148438 1027.921875 299.460938 1021.988281 297.179688 C 1020.667969 296.65625 1019.261719 296.394531 1017.832031 296.394531 Z M 1017.832031 303.273438 C 1018.394531 303.273438 1018.960938 303.382812 1019.511719 303.589844 C 1021.90625 304.511719 1023.089844 307.195312 1022.167969 309.589844 L 933.058594 539.683594 C 932.359375 541.527344 930.597656 542.65625 928.738281 542.65625 C 928.175781 542.65625 927.609375 542.558594 927.058594 542.339844 C 924.664062 541.417969 923.480469 538.71875 924.417969 536.339844 L 1013.511719 306.246094 C 1014.226562 304.402344 1015.972656 303.273438 1017.832031 303.273438 " fill-opacity="1" fill-rule="nonzero"/></g></svg>